<?xml version="1.0" encoding="utf-8"?>
<!-- Generator: Adobe Illustrator 25.0.1, SVG Export Plug-In . SVG Version: 6.00 Build 0)  -->
<svg version="1.1" xmlns="http://www.w3.org/2000/svg" xmlns:xlink="http://www.w3.org/1999/xlink" x="0px" y="0px"
	 viewBox="0 0 48 48" style="enable-background:new 0 0 48 48;" xml:space="preserve">
<style type="text/css">
	.st0{fill:#FF612B;}
	.st1{fill:#002677;}
</style>
<g id="White_space">
</g>
<g id="Layer_3">
	<path class="st0" d="M40.6,21.3c0,9.3-7.5,16.8-16.8,16.8v5.3c0,0.1-0.1,0.1-0.1,0.1l-10.8-9.4l0.1,0C9.3,31,7,26.5,7,21.3
		c0-6.2,3.4-11.7,8.4-14.6c2.5-1.4,5.3-2.2,8.4-2.2s5.9,0.8,8.4,2.2C37.2,9.7,40.6,15.1,40.6,21.3z M19.2,17.9h-2.9V15h-2.3v2.9
		h-2.9v2.3h2.9v2.9h2.3v-2.9h2.9V17.9z"/>
	<g>
		<path class="st1" d="M32.2,6.8l-7.7,7.7c-0.4,0.4-0.9,0.4-1.3,0l-7.7-7.7c2.5-1.4,5.3-2.2,8.4-2.2S29.7,5.3,32.2,6.8z"/>
	</g>
</g>
</svg>
