<?xml version="1.0" encoding="utf-8"?>
<!-- Generator: Adobe Illustrator 25.0.1, SVG Export Plug-In . SVG Version: 6.00 Build 0)  -->
<svg version="1.1" xmlns="http://www.w3.org/2000/svg" xmlns:xlink="http://www.w3.org/1999/xlink" x="0px" y="0px"
	 viewBox="0 0 48 48" style="enable-background:new 0 0 48 48;" xml:space="preserve">
<style type="text/css">
	.st0{fill:#002677;}
	.st1{fill:#FF612B;}
</style>
<g id="White_space">
</g>
<g id="Layer_1">
	<g>
		<g>
			<path class="st0" d="M43,21.89h-3.19c-1.78-3.74-5.58-6.33-10-6.33H18.38c-0.38-2.39-2.44-4.22-4.94-4.22v5.3
				c-2.64,1.26-4.7,3.52-5.69,6.31H6.31C5.59,22.94,5,23.53,5,24.26v2.61c0,0.77,0.47,1.47,1.19,1.76l1.21,0.49
				c0.93,4.09,4.13,7.32,8.21,8.3l1.36,3.48h3.87v-3.17h8.97c0.18,0,0.35-0.02,0.53-0.03v3.19h3.48l1.92-4.89
				c3.1-1.97,5.16-5.42,5.16-9.36c0-0.6-0.06-1.19-0.15-1.77L43,21.89z M13.03,23.53c0-0.51,0.42-0.93,0.93-0.93
				c0.51,0,0.93,0.42,0.93,0.93c0,0.51-0.42,0.93-0.93,0.93C13.45,24.46,13.03,24.04,13.03,23.53z"/>
			<g>
				<path class="st1" d="M31.4,16.92c0.66-1,1.04-2.19,1.04-3.48c0-3.5-2.84-6.33-6.33-6.33s-6.33,2.84-6.33,6.33
					c0,1.29,0.39,2.48,1.04,3.48H31.4z"/>
			</g>
		</g>
	</g>
</g>
</svg>
