<?xml version="1.0" encoding="utf-8"?>
<!-- Generator: Adobe Illustrator 25.0.1, SVG Export Plug-In . SVG Version: 6.00 Build 0)  -->
<svg version="1.1" xmlns="http://www.w3.org/2000/svg" xmlns:xlink="http://www.w3.org/1999/xlink" x="0px" y="0px"
	 viewBox="0 0 48 48" style="enable-background:new 0 0 48 48;" xml:space="preserve">
<style type="text/css">
	.st0{fill:#273370;}
	.st1{fill:#002677;}
	.st2{fill:#FF612B;}
</style>
<g id="White_space">
</g>
<g id="Layer_1">
	<g>
		<g>
			<line class="st0" x1="12.6" y1="6.7" x2="12.6" y2="4.5"/>
			<path class="st1" d="M34.3,34.3c0,3.9-3.2,7-7,7s-7-3.2-7-7v-9.2V25c4.9-0.5,8.7-4.7,8.7-9.7h-2.2c0,4.2-3.4,7.6-7.6,7.6
				s-7.6-3.4-7.6-7.6H9.4c0,5,3.8,9.1,8.7,9.7v0.1v9.2c0,5.1,4.1,9.2,9.2,9.2c5.1,0,9.2-4.1,9.2-9.2v-3.8h-2.2V34.3z"/>
			<path class="st1" d="M24.5,6.7h1.1V4.5h-1.1c-0.6,0-1.1,0.5-1.1,1.1S23.9,6.7,24.5,6.7z"/>
			<path class="st1" d="M14.8,5.6c0-0.6-0.5-1.1-1.1-1.1h-1.1v2.2h1.1C14.3,6.7,14.8,6.2,14.8,5.6z"/>
			<path class="st2" d="M9.4,6.7v8.7h2.2l0-8.7h1.1V4.5h-1.1C10.3,4.5,9.4,5.5,9.4,6.7z"/>
			<path class="st2" d="M26.7,4.5h-1.1v2.2h1.1v0v8.7h2.2V6.7C28.9,5.5,27.9,4.5,26.7,4.5z"/>
			<path class="st2" d="M35.4,21.8c-1.8,0-3.2,1.5-3.2,3.2c0,1.4,0.9,2.6,2.2,3.1v2.4h2.2v-2.4c1.3-0.4,2.2-1.6,2.2-3.1
				C38.6,23.3,37.2,21.8,35.4,21.8z M35.4,26.2c-0.6,0-1.1-0.5-1.1-1.1s0.5-1.1,1.1-1.1s1.1,0.5,1.1,1.1S36,26.2,35.4,26.2z"/>
		</g>
	</g>
</g>
</svg>
