<?xml version="1.0" encoding="utf-8"?>
<!-- Generator: Adobe Illustrator 25.0.1, SVG Export Plug-In . SVG Version: 6.00 Build 0)  -->
<svg version="1.1" xmlns="http://www.w3.org/2000/svg" xmlns:xlink="http://www.w3.org/1999/xlink" x="0px" y="0px"
	 viewBox="0 0 48 48" style="enable-background:new 0 0 48 48;" xml:space="preserve">
<style type="text/css">
	.st0{fill:#002677;}
	.st1{fill:#FF612B;}
</style>
<g id="White_space">
</g>
<g id="Layer_1">
	<g>
		<g>
			<path class="st0" d="M23.73,34.63c-0.78,0.09-1.39,0.87-1.39,1.65v4.68c0,1.13,1.04,1.91,2.17,1.56l0,0
				c0.69-0.26,1.13-0.87,1.13-1.56v-4.77C25.64,35.24,24.77,34.46,23.73,34.63z"/>
			<path class="st0" d="M42.36,26.49l-4.42-1.47c-0.78-0.26-1.65,0.09-1.99,0.78c-0.43,0.95,0,1.99,0.95,2.25l4.51,1.47
				c1.04,0.35,2.08-0.43,2.08-1.56l0,0C43.49,27.27,43.06,26.66,42.36,26.49z"/>
			<path class="st0" d="M33.7,6.04l-2.77,3.81c-0.43,0.69-0.43,1.56,0.09,2.17c0.69,0.69,1.91,0.61,2.43-0.17l2.77-3.81
				c0.61-0.87,0.26-2.17-0.78-2.51l0,0C34.91,5.26,34.13,5.43,33.7,6.04z"/>
			<path class="st0" d="M11.69,6.04L11.69,6.04c-0.43,0.61-0.43,1.3,0,1.91l2.77,3.81c0.43,0.69,1.39,0.95,2.08,0.61
				c0.95-0.43,1.13-1.65,0.61-2.43l-2.77-3.81C13.59,5.17,12.29,5.17,11.69,6.04z"/>
			<path class="st0" d="M10.04,25.01l-4.42,1.47C4.58,26.83,4.15,28.13,4.84,29l0,0c0.43,0.52,1.13,0.78,1.82,0.61l4.51-1.47
				c0.95-0.26,1.39-1.39,0.95-2.25S10.82,24.75,10.04,25.01z"/>
		</g>
	</g>
	<g>
		<path class="st1" d="M23.98,29.54l-9.17,6.37c-0.45,0.34-1.12-0.11-1.01-0.67l3.24-10.62l-8.83-6.71
			c-0.45-0.34-0.22-1.12,0.34-1.12l11.18-0.22l3.73-10.8c0.17-0.49,0.87-0.49,1.04,0l3.73,10.8l11.18,0.22
			c0.56,0,0.89,0.78,0.34,1.12l-8.83,6.71l3.24,10.62c0.22,0.56-0.45,1.01-1.01,0.67L23.98,29.54z"/>
	</g>
</g>
</svg>
