<?xml version="1.0" encoding="utf-8"?>
<!-- Generator: Adobe Illustrator 25.0.1, SVG Export Plug-In . SVG Version: 6.00 Build 0)  -->
<svg version="1.1" xmlns="http://www.w3.org/2000/svg" xmlns:xlink="http://www.w3.org/1999/xlink" x="0px" y="0px"
	 viewBox="0 0 48 48" style="enable-background:new 0 0 48 48;" xml:space="preserve">
<style type="text/css">
	.st0{fill:#002677;}
	.st1{fill:#FF612B;}
</style>
<g id="White_space">
</g>
<g id="Layer_1">
	<path class="st0" d="M32.4,4.5H15.5c-0.6,0-1.1,0.5-1.1,1.1v6.3h19V5.6C33.5,5,33,4.5,32.4,4.5z"/>
	<g>
		<path class="st1" d="M15.5,11.9v29.5c0,0.1,0,0.3,0,0.4c0.1,0.7,0.6,1.3,1.2,1.5c0.3,0.1,0.5,0.2,0.8,0.2h12.6
			c0.3,0,0.6-0.1,0.8-0.2c0.6-0.3,1.1-0.8,1.2-1.5c0-0.1,0-0.3,0-0.4V11.9H15.5z M17.6,17.6h12.6v16.9H17.6V17.6z"/>
	</g>
	<path class="st0" d="M28,25.5h-1.6l-0.9,1.4l-1.4-2c0,0,0.1,0,0.1-0.1c0.5-0.3,0.8-0.8,0.9-1.3c0-0.2,0-0.3,0-0.5
		c-0.1-0.5-0.3-0.9-0.7-1.2c0,0-0.1-0.1-0.1-0.1c-0.4-0.2-0.7-0.3-1.4-0.3h-3.1v6.4h1.4v-2.5h1.4l2,2.8l-1.9,2.8h1.6l1.1-1.6
		l1.1,1.6h1.7l-2-2.8L28,25.5z M23.4,24c-0.2,0.1-0.4,0.2-0.9,0.2h-1.3v-1.8h1.4c0.8,0,1.2,0.3,1.2,0.9C23.7,23.6,23.6,23.9,23.4,24
		z"/>
</g>
</svg>
